<svg xmlns="http://www.w3.org/2000/svg" viewBox="0 0 136.19 116.01"><defs><style>.cls-1{fill:#1d74b5;}</style></defs><title>Artboard 13</title><g id="Content"><path class="cls-1" d="M32.48,87.66,25.34,29.12H41.55l2,24.63c.66,8,.91,15.92.91,20h.26A207.12,207.12,0,0,1,54,53.89L66.53,29.12H83.66L51.34,87.66Z"/><path class="cls-1" d="M79.57,69.35c.4,4.73,3.35,8,9.44,8,4.84,0,7.77-1.68,7.77-5.89,0-3.77-2.68-5.65-9.6-7.91-12.51-4.08-17.46-8.92-17.46-16.73C69.72,36.16,77.53,28,93.28,28c14.29,0,23.12,6.62,23.32,18H100.65c-.11-2.68-1.27-6.5-7.64-6.5-3.85,0-6.67,1.63-6.67,5.19,0,2.76,2.14,4.51,9,6.73,13.07,4.23,18.52,9.45,18.52,18,0,11.15-8.15,19.28-25.81,19.28-16.13,0-24.12-7.57-24.46-19.4Z"/></g></svg>