<svg xmlns="http://www.w3.org/2000/svg" viewBox="0 0 601.45 512.35"><defs><style>.cls-1{stroke:#000;stroke-miterlimit:10;stroke-width:10.6px;}.cls-2{fill:#2d2d2d;}.cls-3{fill:#e4dad0;}.cls-4{fill:#878787;}.cls-5{fill:#fff;}</style></defs><title>Artboard 5 copy 5</title><g id="Team_3" data-name="Team 3"><path class="cls-1" d="M148.71,200.61c9.32,4.7,18,16.37,21.1,28.95,17.17,3.13,28,18.39,26,14.87S187.39,230.75,188,221a40.47,40.47,0,0,1-13.74-27.38c-8.34-8.6-9.47-18.07-11.28-25-11.29-9.39,16.11-46.08,50.05-58.29,30.6-4.25,38.74,4.62,46.13,12.52,14.06,4,20.62,15.21,24,24.25,6.53,2.61,12.69,9.19,17.37,15.42,1-3.49-.87-7.17.23-7.55,2.81,2.12,5.66,6.85,6.61,7.32,1.77-1,2.36-4.49,2.36-6.38,2.43-.33,6.14,3.07,7.79,5.43,2.75,3.31,2.83-.47,1.18-5.19,2.67-.09,5.19,3.07,6.13,4.49s2.36,3.29,4.71,3.77c2.87-6.24,10.81-22,19.61-26.39,2.73-9.05,8-20.3,19.18-24.28,5.89-7.91,12.39-16.78,36.8-12.52,27.08,12.22,48.94,48.93,39.93,58.33-1.44,7-2.34,16.44-9,25.05-.84,11.39-4.7,20.36-11,27.41.46,9.81-4.7,20-6.27,23.49s7.05-11.75,20.75-14.88c2.46-12.59,9.4-24.27,16.84-29s14.48,1.57,14.48,16.05-1.17,16.45-3.13,23.88a51.07,51.07,0,0,1-8.22,28.58c-3.57,11.57-9.4,20-15.66,23.1.05,4.63-6.66,14.49-27.8,13.7-17.83-.66-24.5-3.82-26.16-4.79,3,21.9-4.56,34.37-4.56,34.37s2.93,10.23-.48,14.61a32.62,32.62,0,0,1-8.77,8.28c-2.43,1.46,0,8.76-4.38,11.69s-14.61,3.41-18,3.89-12.18,14.13-14.61,20.94S326,409.74,323.52,411.2s-4.38,4.38-10.71-13.64-12.18-24.83-16.07-27.27-8.77-7.79-8.77-19-11.2-36-22.4-39.94-12.18-2.92-16.56-8.76c-.58-.78-1.49-2.06-2.6-3.76a210.42,210.42,0,0,1-47.16,7c-26.5.78-34.9-9.07-34.84-13.69-7.85-3.13-15.15-11.53-19.63-23.08a43.63,43.63,0,0,1-10.3-28.56c-2.46-7.43-3.93-9.38-3.93-23.86S139.38,195.92,148.71,200.61Z"/><path class="cls-2" d="M309.17,176S297,152.54,283.16,147c-3.42-9-10-20.28-24-24.25-7.39-7.9-15.53-16.77-46.13-12.52-33.94,12.21-61.34,48.9-50.05,58.29,1.81,7,2.94,16.43,11.28,25A40.47,40.47,0,0,0,188,221c-.57,9.8,5.89,20,7.86,23.48s-8.84-11.74-26-14.87c-3.08-12.58-11.78-24.25-21.1-28.95s-18.16,1.57-18.16,16,1.47,16.43,3.93,23.86a43.63,43.63,0,0,0,10.3,28.56c4.48,11.55,11.78,19.95,19.63,23.08-.06,4.62,8.34,14.47,34.84,13.69a207.76,207.76,0,0,0,48.12-7.27L267,254.2l44.78-60.37Z"/><path class="cls-3" d="M318.07,193.05s-22.81-35.46-36.93-42c-13.47-3.12-54.76,26.33-58.68,33.26s-2.6-4.51,8.26-14.55,30.86-21.48,44.34-23.56-16.95-21.83-20-20.79-36.07,13.86-50,33.61c-7.38,9.73-2.61-6.59,3-11.44s21.3-19.75,41.29-25.29c1.9-5.43-27.81-10-34.77-6.24s-31.73,14.9-47.81,39.15c-4.32,10.66,2.87,4.5,7.82,4.51,4.77,0,10.51,0,14.78,3.81-1,1.14-2.17,1-7.39-.35s-11.3,1-11.3,5.89-.87,13.86,7.83,20.1S196,192.66,198.12,193c4-1,4.41,2.39-5.86,2.51-7.82-.35-8.91-.08-11.52-1.12-.56,3.89.87,15.24,9.56,18.71s24.78,6.23,26.08,6.23,7.39,3.12-6.09,2.43c-8.06-.25-11.23-.13-16.08-.35-1.5,8.05,1.74,18.37,5.22,21.14,2.35,1.72,19.86-3.1,26.95,1.73,6.66,4.68-4.78,1-9.13.35s-16.81,1.65-18.65,6.62c-.43,3.46.61,6.86,3.87,7.93,5.22,1-.43,4.85,1.74,7.62s1.49,4.19,12.6,11.09a31.18,31.18,0,0,0,9.88,2.49c2.18,0,2.35,2.22-5,1.93-11.93-2.05-17.93-10.66-22.28-11.35s.43-5.89-5.65-13.51-12.17-19.41-26.08-22.87c-5.8-1.63-1.3-5.2-10-16.29s-11.3-12.12-12.6-13.16-5.22-4.51-7.39,5.19,0,24.26,5.22,28.07,15.21,5.54-1.74,6.93c-1.19,7.49,6.21,20.14,14.34,20.44,5.65,0,10.15.18,14.34,0,3-.69-.87,4.16-7,4.85-5.55,1-11.74,1.39-11.74,1.39s8,15.17,19.79,16.21,15.42,1.11,19.33.07c3.47-1,.32,2.53-3.93,3.66a88.13,88.13,0,0,1-13.89,1.19c.6,2.18,2,4.11,7.39,5.89,8.26,1,29.12.7,33-1.73s4.78-6.24,5.65-7.62.44,6.24-.43,8,16.08-1,20.86-4.51S274.3,227.9,274.3,227.9Z"/><path class="cls-2" d="M240.28,223.9s-6.87-3.43-9.24-6.34-4.51-4.62-6.23-8.9-3-6.51-5.8-8.57-8.37-6.85-11.17-11.81S198.39,178,196.24,176s-7.52-5.48-9.45-6c-2.77-1-7.27,2.45-3.6,6.54,4.42,3,5.53-.88,5.53-.88s16.33,14.21,17.19,16.26,3.22,6.34,5.58,8.22,6.66,5.48,7.31,6,.86,5.82,2.79,8.73,9.67,12.16,11.17,12.84,6,3.94,7.09,4.29S240.28,223.9,240.28,223.9Z"/><path class="cls-2" d="M328.4,166.91s9.7-23.45,20.75-29c2.73-9.05,8-20.3,19.18-24.28,5.89-7.91,12.39-16.78,36.8-12.52,27.08,12.22,48.94,48.93,39.93,58.33-1.44,7-2.34,16.44-9,25.05-.84,11.39-4.7,20.36-11,27.41.46,9.81-4.7,20-6.27,23.49s7.05-11.75,20.75-14.88c2.46-12.59,9.4-24.27,16.84-29s14.48,1.57,14.48,16.05-1.17,16.45-3.13,23.88a51.07,51.07,0,0,1-8.22,28.58c-3.57,11.57-9.4,20-15.66,23.1.05,4.63-6.66,14.49-27.8,13.7s-26.62-5.09-26.62-5.09l-27.4-46.58L347.58,195.1Z"/><path class="cls-3" d="M335.16,165.93s4.33-17.42,15.6-23.93c10.75-3.12,43.69,26.36,46.81,33.29s2.08-4.5-6.59-14.56-24.62-21.5-35.37-23.58,13.53-21.85,16-20.81,28.78,13.87,39.87,33.64c5.89,9.74,2.08-6.59-2.42-11.44s-17-19.77-32.95-25.32c-1.51-5.43,22.2-10,27.74-6.24s25.32,14.91,38.15,39.19c3.45,10.66-2.29,4.49-6.24,4.5s-8.39,0-11.79,3.82c.75,1.13,1.73,1,5.89-.35s9,1,9,5.9.69,13.87-6.24,20.11S418.73,183.62,417,184c-3.15-1-3.51,2.39,4.68,2.51,6.24-.35,7.11-.08,9.19-1.12.45,3.89-.69,15.26-7.63,18.72s-19.76,6.25-20.8,6.25-5.9,3.12,4.85,2.42c6.44-.24,9-.12,12.83-.34,1.2,8-1.38,18.38-4.16,21.15-1.87,1.72-15.85-3.1-21.5,1.73-5.31,4.69,3.82,1,7.28.35s13.41,1.65,14.88,6.63c.35,3.47-.48,6.87-3.09,7.93-4.16,1,.35,4.86-1.38,7.63s-1.19,4.2-10.06,11.1a20.9,20.9,0,0,1-7.88,2.5c-1.74,0-1.87,2.22,4,1.93,9.52-2.05,14.31-10.67,17.78-11.37s-.35-5.89,4.51-13.52,9.71-19.42,20.81-22.89c4.62-1.63,1-5.2,8-16.29s9-12.14,10.06-13.18,4.16-4.51,5.89,5.2,0,24.27-4.16,28.09-12.14,5.55,1.39,6.93c.94,7.5-5,20.16-11.45,20.46-4.5,0-8.09.18-11.44,0-2.43-.69.69,4.16,5.55,4.86a80.17,80.17,0,0,0,9.36,1.38s-6.42,15.19-15.78,16.23-12.31,1.11-15.43.07c-2.76-1-.25,2.53,3.14,3.66a55.89,55.89,0,0,0,11.08,1.2c-.48,2.18-1.56,4.11-5.89,5.89-6.59,1-23.24.7-26.36-1.73s-3.81-6.24-4.51-7.63-.34,6.24.35,8-12.83-1.05-16.64-4.51-16.3-77.33-16.3-77.33Z"/><path class="cls-2" d="M383.36,214.87s5.48-3.42,7.37-6.34,3.6-4.62,5-8.91,2.4-6.51,4.63-8.57,6.68-6.85,8.91-11.82,7.54-10.29,9.25-12.34,6-5.49,7.54-6c2.22-1,5.8,2.44,2.88,6.53-3.53,3-4.42-.88-4.42-.88s-13,14.23-13.71,16.28-2.57,6.35-4.45,8.23-5.32,5.49-5.83,6-.69,5.83-2.23,8.74-7.71,12.17-8.91,12.85-4.8,4-5.66,4.29S383.36,214.87,383.36,214.87Z"/><path class="cls-2" d="M384.89,225.16l.48,13.64s7.8,9.25,7.8,13.15-1,11.69-9.26,22.4a84.39,84.39,0,0,1,5.92,16.85c3.35,22.46-4.46,35.26-4.46,35.26s2.93,10.23-.48,14.61a32.62,32.62,0,0,1-8.77,8.28c-2.43,1.46,0,8.76-4.38,11.69s-14.61,3.41-18,3.89-12.18,14.13-14.61,20.94S326,409.74,323.52,411.2s-4.38,4.38-10.71-13.64-12.18-24.83-16.07-27.27-8.77-7.79-8.77-19-11.2-36-22.4-39.94-16.11-4.27-20.49-10.11c-3.19-4.26-2.25-21.16-6.74-44.19-1.64-8.41-9.62-17.36-10.27-26.05,1.07-4.82-3.93-8.88-3.41-18.51-2.19-7.35-4-6.1-4.87-10.23,1.64-2,6.64.69,13.62,4.23,4.27,1.88,8.12,3.75,12.19,5.51s13.64,4.39,19,3.9c0,0,9.72,2.47,11.85-1.3s4.48-6.61,5.9-9,6.14-.71,8,.23,7.79.47,9-3.3,2.84-12.28.71-15.34,3.31,3.06,4.49,2.12,1.18-6.84-.71-11.09-6.35-11.41-4.72-13.22c3.57-4,.27-9.68,1.65-10.15,2.81,2.12,5.66,6.85,6.61,7.32,1.77-1,2.36-4.49,2.36-6.38,2.43-.33,6.14,3.07,7.79,5.43,2.75,3.31,2.83-.47,1.18-5.19,2.67-.09,5.19,3.07,6.13,4.49s2.36,3.3,4.72,3.77a32.93,32.93,0,0,0,9.68.71c5.19-.24,17,5,20.3,7.55s14.87,16.29,17.94,21a42.35,42.35,0,0,1,6.61,17.23C384.78,217,384.89,225.16,384.89,225.16Z"/><path class="cls-4" d="M344.24,362.71s-12.87.44-17.19.11-7.65.66-11.64-2.66-10.31-8.32-11.64-12.64-5.19-6-6.66-14.64c-.79-4.64-2.66-22.29-2.66-22.29a27.36,27.36,0,0,1-3-.33c-2.33-.33-3-2-.67-2.33s8.32-1,10.65,2,6,6.65,7,15,6.32,20.29,9,23,7.65,8.65,11.65,9.31,8,.67,16.3,1c3.33.21,3.48,2.44,6.32,3,4.65.66,13.63.33,16.3-3s4.08-5.11,4-6.32c-.34-1.33-8.32,1.33-11,.67s1-.34,6-2.66,10.62-5.21,14-11.31a25.59,25.59,0,0,0,1.33-9,19.73,19.73,0,0,0-4.32,0c-1.34.67,7.31-10.64,7.65-17s1-21.29-2.67-28.28-6-14-6.32-16.3a10.11,10.11,0,0,0,3.66.67c1.85,0,6.66-3.33,6.66-9.65s-1.67-13-3.66-16-5.32-11-5.66-14c0,0,2,0,2.66-1,1.05-3.17,1.7-14.24-2.18-23.52-2-4.65-12.55-20.6-16.57-23.91-4.21-3.47-9.19-9.79-18.84-10.79s-30.93-2-38.25,0c0,0,.4,4.58,6.65,7.32,3,0,21.64-6.12,28.94,3.66,1.76,4.09-11-3.38-23.61,2.66-6.26,2.15-4.33,8-4.66,10.31s-3.33-4.32-4.66-1.33-3.32,13-9,15.31a17.4,17.4,0,0,1-13,.33c-2.66-1-4.24,5.4-5.66,7.65-2.57,4.09-9.22,3.63-14.61,3.17-12.46-1.06-19-4.17-21.31-5.5s-18.63-9.31-19.63-9.65-.67.67,1.66,5.33a50.33,50.33,0,0,0,9,12c1.67,1.33,11,4.66,25.62,3.33,4.88.06,5.89,7.75-5,8-6.81-.09-8.65,2-11.64,2.33s-6-.67-7.65-.67-2,3,.66,7.32,6.32,9.32,7.32,14,4.32,24.62,4.66,36.93,22.62,17,25.61,17.63,12.64,3.32,15,10.64,2.33,17.63,4.32,23.95,8,19,12,20.63,8.65,2.66,11.31,5.32,3.59,6,11.31,4.66c5.46-.94,8.45-1.43,12-2C343.29,372.6,345.78,366.17,344.24,362.71Z"/><path class="cls-2" d="M301,241.24c3.2,1.2,8.87,5.91,9.91,8.28s2.83,7.17,4.58,9.61c2.57,3.62,7.39,7.83,9.17,8.42a12.52,12.52,0,0,0,8,.6c4.29-.89,3.82-2.6,9.91-2.67,5.27.29,7.68,2.37,9.46,3.4,3.62,1.67,4.52,5.68.29,4.29-3.57-1.64-5.08-3-7.68-3.4-3.26-.29-4.88-.29-6.66.44s-4.73,1-5.47,2.22.3,3,1.78,3.4a47.38,47.38,0,0,0,8.42,1c3.11.15,7.54,2.51,8.73,4,2.54,1.88,2.16,5.06-.89,2.81-3.55-2.22-3.4-3.4-6.36-4.14s-6.8-.89-7.54-.44-.59,2.21.45,2.66,6.5,2.21,7.09,3.25,2.36,1.7,1.78,2.81c-.85,1.37-2.38,1.19-4.59-.45-1.59-1.18-4.14-3.25-5.91-3.54a9.46,9.46,0,0,1-5.18-3.26c-1.33-1.62-4.13-2.95-6.5-1.47s-4,3.4-6.5,3.69a24,24,0,0,1-7.54-.29c-1.34-.45-1.63-2.07.59-2.22s6.5.74,7.09-.45.59-1.47-2.21-1.33-14.05-2.51-11.54-15.22c1.15-6.13,3.85-8.58,1.48-12.13s-4.14-5.91-5.76-6.5S297.48,239.91,301,241.24Z"/><path class="cls-5" d="M311.12,258.66l3.41,4.31s-.91,6.44.68,7.88,3,2.12,3.41,2.8-1,3.11-4.24,1.67-5.83-3.56-6.29-5.3-1.13-5.31-.3-7.73S309.15,259.11,311.12,258.66Z"/><path class="cls-2" d="M256.55,239.6c4-1.83,6.88-.09,4.7,2.53s-6.25,5.52-6.83,19.47,3.63,27.6,4.65,29.49,4.07,3.92,5.52,4.65.15,4.07-2.76,1.74a22,22,0,0,1-8-11.47c-1.45-5.53-5.38-18.6-5.52-23.4s1.91-13.57,2.53-15.28A16.87,16.87,0,0,1,256.55,239.6Z"/><path class="cls-2" d="M355.21,348.72c-.65-2.18-5.22-18-9.45-21.76-5.55-4.95-9-3-10.2-2.25s-2.4,7.36,1.2,9.46.15-2.7,1.8-4.2,3.17.35,4.95,1.8c2.4,2,6.32,8.54,7.2,13.2C351.31,348.12,356.11,351.72,355.21,348.72Z"/><path class="cls-2" d="M354,316.34c1.77,2.81.29,7.24-3.55,2.22s-6.5-6.36-8.43-7.1-6.65-2.81-9.46-.15-3.4,4.59-2.95,9.17-3.7,3.4-3.7-1c0-3.56-.87-10.67,4.14-13.9,4.58-3,11.68-1,13.16.29S349.71,309.61,354,316.34Z"/><path class="cls-5" d="M318.14,354c-1.37-1.37-6.42-6.9-7.54-10.75s-5.46-17.33-5.78-22-3.24-6.74-4.81-6.1-.8,6.26-.16,8.5,1.44,2.09,2.09,5.62,0,5.77.64,8.18,2.88,1.61,3.85,3.53,0,2.89,1,5.29,8.66,9.47,9.79,9.79S320.38,356.22,318.14,354Z"/><path class="cls-3" d="M337.78,379.56c1.82.45-10.5,2.67-14.61,1.78a15.81,15.81,0,0,1-8.67-5.11c-1.37-1.78-5.94-.45-7.08-2s-3,1.33.23,4.89,6.85,7.33,8,10.44,4.33,11.12,4.79,13.34,3.2,3.78,6.85-3.33S337.78,379.56,337.78,379.56Z"/></g></svg>