<svg xmlns="http://www.w3.org/2000/svg" viewBox="0 0 601.45 512.35"><defs><style>.cls-1{fill:#353535;}.cls-2{fill:#b19f82;}.cls-3{fill:#e4dad0;}.cls-4{fill:#fff;}.cls-5{fill:#7f7970;}</style></defs><title>Artboard 5 copy 3</title><g id="Team_1" data-name="Team 1"><path class="cls-1" d="M225.34,275.89c-2.28.65-28.59,30.53-19.17,65.62s20.46,49.38,20.46,49.38-.64-14.95,1-18.19-1.3,16.24,44.18,43.2c26,14.62,28.59,23.39,28.91,29.24v-52.3L247.75,267.77Z"/><path class="cls-2" d="M242.23,278.81c2-.65-32.49,19.17-19.17,80.89,2.93-14.62,7.15-18.84,14.3-23.71s-13.65,31.18,31.51,58.47c25,16.89,30.53,20.47,31.83,26.64V389.26l-39.95-113.7Z"/><path class="cls-1" d="M232.79,244.47s-8.19,6.76-22.78,5.69c-4.27-2.49-21-18.51-20.29-48.41,3.2-19.57,13.52-55.52,14.24-60.86s7.47-34.88-8.9-48.41-15.31-14.24-40.58-25.27c11,15.66,18.15,18.15,19.58,49.12-4.91-8.92-15-15.73-14.75-14.55,9.72,50-22.05,44.59-26.54,37.68-4.63-7.11-28.48-28.47-48.41-27.4,7.48,12.1,14.24,13.88,22.78,43.07,9.26,38.08.71,41.64-2.49,42.71s-12.46.35-18.86-16.37-4.28-10-5.7-14.24-11.39,52.68,7.12,76.52,33.46,38.09,65.49,43.07,59.8-2.13,69.41-6.05S252,266.53,252,266.53L256.28,253l-2.49-14.59L245.25,237Z"/><path class="cls-3" d="M249.52,250.52s-11.73,10.45-31,11c7-2.55,9.25-4.18,11.75-6.05-15.6,5-27.55,9.23-37.38-8.9-18.15-24.2-14.95-45.2-13.17-55.17s11-47.34,11.75-52.68,5-25.27-2.49-35.59-7.83-10.32-9.61-11.39,13.88,30.25-5.34,53.75c-.14-11.63,1.17-14.42-4.63-22.78-.09,15.24-1.73,21.63-7.62,27.36-10.49,10-19.82,7.21-23.35,6.81,4.68-1.41,5.7-1.78,8.19-3.56s-11,4.62-26-13.89c-8-7.37-10-11.39-13.17-11.39s13.88,16,15.3,43.79-3.91,32.74-8.54,35.94-8.54,10.68-23.85-5.69c.65,10.71,17.8,43.42,27.77,47.34-2.88-.11-17.09-4.63-23.85-15.66,5.57,10.15,16.22,28.16,45.2,37.73,15.4,6.81,48.41,7.12,56.95,6.05s41.29-8.54,51.61-16.73Z"/><path class="cls-1" d="M300.71,407.89c-1.07-2.88-1.65-5.83-7.54-9-9.19-2.7-12.27-6.22-15.8-9-.13,1.08-.64.86-.36,4.67-4.31-3.6-7.55-15.09-7.55-19s2.16-11.86-3.23-20.48-3.59-15.08-4-19,4.31-11.5,5-17.25c.12-5.52-6.9-15.55-12.58-21.91.63,2.19.85,2.48,2.52,8.62C251,299.08,248,294.32,245.4,283.6c.08,2.08-1.46,1.57-1.44,7.54-7.19-16.16,2.51-25.5,3.95-30.53s9-14.37-16.88-15.44-39.16-37-36.28-33.77,24.06,3.23,29.45.72,13.66-2.27,18.68-3.24c-3.23-1.79-11.13,0-8.26-1.79a42.84,42.84,0,0,1,14-1.44c6.73,1,8.7,5.15,11.13,5.39,2.16-1.44,1.44-4.67,12.94-7.54,10.76-.82,14.86,3.13,17.6,4.67a4.94,4.94,0,0,1-.72-3.6c6,3.45,9.7,3.6,9.7,3.6l2,164.68Z"/><path class="cls-2" d="M300.6,216.37c-6.62,0-9.94,2.35-16.56,2.76.55-2.21,7.18-2.76,5-5.52s-14.91-2.76-21-1.1-8.83,17.11-9.38,14.9-2.08-14.9-24.06-8c-11.89,5.66-18.46,2.94-25.07,3,5,9.46,22.08,15.46,20.42,14.36s-9.45-7.5-5.94-6.8c2.73.54,6.55-.14,9-.7,6.62-3.32,17.38-4.65,19,1.43s8.84,11,7.18,11-4.84-.4-3.79,1.16c2.63,3.95,1,15.4,1,15.4s4.51-2.68,3.86-1.66c-2,3.19-8.83,16.12-6.62,13.8,11.3-11.9,19.87-4.41,29.26,1.66S295.08,271,295.08,271s1.15,7.76-7.23,11.62c-2.8,1.3,4.48,21.75-3.45,36.48-1.51,2.8-.43-10.15-1.29-12.31s-11.23,21.8-12.52,27.85-1.3,14,1.94,19.85,8.2,12.73,7.34,19a8.77,8.77,0,0,0-2.59-3.45c-.06,3.78,1.51,11.65,13.6,16.18,3.5,1.26.42-1.73-.22-3.45a15.58,15.58,0,0,0,10.64,3.67Z"/><path class="cls-4" d="M280.1,282.44s-8-4.53-9.17-5.66-5.66-1.13-6.54-.62,1,7,4.27,8.16S277.84,284.32,280.1,282.44Z"/><path class="cls-5" d="M279.9,343.25s10.66,2.19,13.16,7.19,3.17,7.34,1.64,13c-1,3.79-5.9,7-6.6,7.16s6-5.68,4.24-12.87-2.44-7.73-4.24-9.21S282.55,343.87,279.9,343.25Z"/><path class="cls-1" d="M277.4,343.11s9-.76,13.14,7.62,1.52,14.48.19,17-5.14,4.76-5.71,5.14.76-1.33.38-4-7.29-1.81-7.35-18.39c.86-4.07,3.6-1.94,4.3-1.28a8,8,0,0,0-1.29-2.87A29.61,29.61,0,0,0,277.4,343.11Z"/><path class="cls-1" d="M301.05,346.7a9.14,9.14,0,0,0-7.84-4c4,5.4,5.25,6.19,6.83,11.3.07,6.47,0,6.47,0,6.47h1Z"/><path class="cls-1" d="M376.12,275.89c2.27.65,28.59,30.53,19.17,65.62s-20.47,49.38-20.47,49.38.65-14.95-1-18.19,1.3,16.24-44.18,43.2c-26,14.62-28.58,23.39-28.91,29.24v-52.3L353.7,267.77Z"/><path class="cls-2" d="M359.23,278.81c-2-.65,32.48,19.17,19.16,80.89-2.92-14.62-7.14-18.84-14.29-23.71s13.64,31.18-31.51,58.47c-25,16.89-30.54,20.47-31.84,26.64V389.26l40-113.7Z"/><path class="cls-1" d="M368.67,244.47s8.18,6.76,22.78,5.69c4.27-2.49,21-18.51,20.28-48.41-3.2-19.57-13.52-55.52-14.23-60.86S390,106,406.4,92.48,421.7,78.24,447,67.21c-11,15.66-18.15,18.15-19.57,49.12,4.9-8.92,15-15.73,14.75-14.55-9.72,50,22.05,44.59,26.53,37.68,4.63-7.11,28.48-28.47,48.41-27.4-7.47,12.1-14.24,13.88-22.78,43.07-9.25,38.08-.71,41.64,2.49,42.71s12.46.35,18.87-16.37,4.27-10,5.69-14.24,11.39,52.68-7.12,76.52-33.45,38.09-65.49,43.07-59.8-2.13-69.41-6.05-29.89-14.24-29.89-14.24L345.17,253l2.5-14.59,8.54-1.43Z"/><path class="cls-3" d="M351.94,250.52s11.72,10.45,31,11c-7-2.55-9.25-4.18-11.74-6.05,15.59,5,27.55,9.23,37.37-8.9,18.15-24.2,15-45.2,13.17-55.17s-11-47.34-11.74-52.68-5-25.27,2.49-35.59,7.83-10.32,9.61-11.39S408.18,122,427.4,145.52c.13-11.63-1.18-14.42,4.62-22.78.1,15.24,1.73,21.63,7.63,27.36,10.48,10,19.81,7.21,23.34,6.81-4.67-1.41-5.7-1.78-8.19-3.56s11,4.62,26-13.89c8-7.37,10-11.39,13.17-11.39s-13.89,16-15.31,43.79,3.92,32.74,8.54,35.94,8.55,10.68,23.85-5.69c-.65,10.71-17.8,43.42-27.76,47.34,2.88-.11,17.08-4.63,23.85-15.66-5.58,10.15-16.22,28.16-45.21,37.73-15.39,6.81-48.41,7.12-56.95,6.05s-41.29-8.54-51.61-16.73Z"/><path class="cls-1" d="M300.74,407.89c1.08-2.88,1.66-5.83,7.54-9,9.2-2.7,12.27-6.22,15.81-9,.12,1.08.63.86.36,4.67,4.31-3.6,7.54-15.09,7.54-19s-2.15-11.86,3.23-20.48,3.6-15.08,4-19-4.31-11.5-5-17.25c-.13-5.52,6.9-15.55,12.57-21.91-.62,2.19-.84,2.48-2.51,8.62,6.28-6.43,9.21-11.19,11.85-21.91-.08,2.08,1.46,1.57,1.44,7.54,7.18-16.16-2.52-25.5-4-30.53s-9-14.37,16.89-15.44,39.15-37,36.28-33.77-24.07,3.23-29.46.72-13.66-2.27-18.68-3.24c3.24-1.79,11.14,0,8.27-1.79a42.89,42.89,0,0,0-14-1.44c-6.73,1-8.71,5.15-11.14,5.39-2.15-1.44-1.44-4.67-12.93-7.54-10.77-.82-14.87,3.13-17.6,4.67a5,5,0,0,0,.72-3.6c-6,3.45-9.7,3.6-9.7,3.6l-1.29,179.15Z"/><path class="cls-2" d="M300.85,216.37c6.63,0,9.94,2.35,16.56,2.76-.55-2.21-7.17-2.76-5-5.52s14.9-2.76,21-1.1,8.83,17.11,9.39,14.9,2.07-14.9,24.05-8c11.9,5.66,18.47,2.94,25.08,3-5,9.46-22.08,15.46-20.43,14.36s9.46-7.5,5.95-6.8c-2.73.54-6.56-.14-9-.7-6.63-3.32-17.38-4.65-19,1.43s-8.83,11-7.18,11,4.84-.4,3.8,1.16c-2.64,3.95-1,15.4-1,15.4s-4.52-2.68-3.87-1.66c2,3.19,8.83,16.12,6.63,13.8-11.31-11.9-19.88-4.41-29.26,1.66S306.37,271,306.37,271s-1.14,7.76,7.23,11.62c2.81,1.3-4.48,21.75,3.45,36.48,1.51,2.8.43-10.15,1.3-12.31s11.22,21.8,12.52,27.85,1.29,14-1.95,19.85-8.2,12.73-7.33,19a8.58,8.58,0,0,1,2.59-3.45c.05,3.78-1.52,11.65-13.6,16.18-3.51,1.26-.43-1.73.21-3.45a14.14,14.14,0,0,1-10,3.67Z"/><path class="cls-4" d="M321.35,282.44s8-4.53,9.18-5.66,5.65-1.13,6.53-.62-1,7-4.27,8.16S323.62,284.32,321.35,282.44Z"/><path class="cls-5" d="M321.56,343.25s-10.67,2.19-13.17,7.19-3.16,7.34-1.64,13c1,3.79,5.9,7,6.61,7.16s-6-5.68-4.25-12.87,2.45-7.73,4.25-9.21S318.9,343.87,321.56,343.25Z"/><path class="cls-1" d="M324.06,343.11s-8.95-.76-13.15,7.62-1.52,14.48-.19,17,5.15,4.76,5.72,5.14-.76-1.33-.38-4,7.28-1.81,7.34-18.39c-.86-4.07-3.59-1.94-4.29-1.28a7.84,7.84,0,0,1,1.29-2.87A28.22,28.22,0,0,1,324.06,343.11Z"/><path class="cls-1" d="M300.41,346.7a9.12,9.12,0,0,1,7.84-4c-4,5.4-5.25,6.19-6.83,11.3-.08,6.47,0,6.47,0,6.47h-1Z"/><polygon class="cls-1" points="299.38 388.36 302.12 388.36 300.74 407.89 299.38 388.36"/><rect class="cls-2" x="299.76" y="216.35" width="1.99" height="48.27"/><polygon class="cls-1" points="299.18 208.17 302.25 208.17 302.17 216.42 299.28 216.4 299.18 208.17"/></g></svg>