<svg xmlns="http://www.w3.org/2000/svg" viewBox="0 0 601.45 512.35"><defs><style>.cls-1{fill:#0c408c;}.cls-1,.cls-4{stroke:#2d2d2d;stroke-miterlimit:10;stroke-width:7.95px;}.cls-2{fill:#2d2d2d;}.cls-3{fill:#f3ebe0;}.cls-4{fill:none;}</style></defs><title>Artboard 5 copy 4</title><g id="Team_2" data-name="Team 2"><path class="cls-1" d="M294.1,94.46s0-13.16-1.25-16.3,49.52,3.77,60.8,7.53,6.89,2.5,5.64,8.14,1.88,4.39,1.88,4.39,7.84-11.55,18.18-8.77c7.52,2.5,10.49,8.06,10.65,18.8-2.83-4.83-4.79-6.43-10.43-4.55s-14.16,6.39-13.38,18.34c.15,2.35,6.89-5.47,12.67-4.4,8.83,1.62,13.16,4.72,19.43,26s8.64,46.07,20.55,53l11.91,6.9s-22.57,6.89-25.08,7.52,25.7,26.95,15.67,72.71c0,0-7.78-19.94-20-23.2-4.42,3.31,20.68,31.35-3.76,85.88,0,0-.63-1.88-5.65-10-7.81,1.68-13.79,21.31,1.88,51.4-3.53,2.84-23.19-3.14-25.07-14.42-5.54,3.59-16,13-13.79,44.5-12.67-7.39-22.56-33.84-23.82-49.51a41.43,41.43,0,0,0-13.79-28.21c-3.76-3.13,5.65,40.11-8.77,68.95,0,0-10.26-18.2-20.69-30.09-5.13,5.19,10,46.38,19.44,51.4s-53.91,21.31-72.71-65.19c-4.41,5.57-7.9,9.59-11.29,13.79-11.36-18.68-14.41-32-29.46-52s-10-75.85-2.5-84.62c-8.9,0-15.06.24-20.06,0-3.76,1.25,13.16-12.54,17.55-25.07s10-28.21,20.06-35.73c2-4.12-9.4-1.88-11.29.62s0-20.05,7.53-27.58,15.67-19.43,15.67-23.81S218.26,117,218.26,117a27.3,27.3,0,0,1,16.92,2.5c4.35-2.39-2.5-20.68-10-20-4.12.49-7.61,2.37-9.4,5-1.88,4.39-3.13-9.4,3.76-13.79s17.55-1.88,17.55-1.88,2.38-3.93,5.64-3.76,5,1.88,7.53.63,29.46-6.9,29.46-6.9S289.72,86.31,294.1,94.46Z"/><path class="cls-2" d="M303.81,140.83l-26.15-13.76s-20.57,13.09-22.44,18-1.12,14.21-1.12,15.33,27.68,13.46,27.68,13.46a45.53,45.53,0,0,1,3,16.46c-.14,6.59-.25,14.29-.25,17.26l-4.81-5.06-1.13-14.08s-13.63,2.63-17-13.83l-7.1-4.11-16.83,13.46s5.61,18.33,23.18,24.31c-1.27,9.76-3.74,25.43-3.74,25.43l16.46,3.74-17.2,3s.74,6.74,4.11,8.61l16.08-3.37-8.6,6.73a10,10,0,0,0,12,2.25c7.48-3.37,19.45-11.6,19.45-11.6s.37-9-12.35-16.08-14.58-7.48-14.58-7.48,4.49-3.74,9.35-1.87,22.06,9,22.06,9Z"/><path class="cls-2" d="M302.65,140.83l26.14-13.76s20.57,13.09,22.44,18,1.12,14.21,1.12,15.33-27.68,13.46-27.68,13.46a45.53,45.53,0,0,0-3,16.46c.14,6.59.25,14.29.25,17.26l4.81-5.06,1.13-14.08s13.63,2.63,17-13.83l7.1-4.11,16.83,13.46s-5.61,18.33-23.18,24.31c1.27,9.76,3.74,25.43,3.74,25.43l-16.46,3.74,17.2,3s-.74,6.74-4.11,8.61l-16.08-3.37,8.6,6.73a10,10,0,0,1-12,2.25c-7.48-3.37-19.44-11.6-19.44-11.6s-.38-9,12.34-16.08S334,219.44,334,219.44s-4.48-3.74-9.35-1.87-22.06,9-22.06,9Z"/><path class="cls-2" d="M303.08,249.49,281.56,261.1s-2,9.52,4.83,15.26l2.87-7.57s1.43,13.57,13.82,13.57,13.57-13.57,13.57-13.57l2.87,7.31s6.52-2.87,5.09-14.74Z"/><path class="cls-3" d="M303.81,133.15l-26.15-13.77s-20.57,13.09-22.44,18-1.12,14.21-1.12,15.33,27.68,13.46,27.68,13.46a45.47,45.47,0,0,1,3,16.46c-.14,6.59-.25,14.29-.25,17.26l-4.81-5.06-1.13-14.08s-13.63,2.63-17-13.83l-7.1-4.11-16.83,13.46s5.61,18.33,23.18,24.31c-1.27,9.75-3.74,25.43-3.74,25.43l16.46,3.74-17.2,3s.74,6.73,4.11,8.6l16.08-3.36-8.6,6.73a9.94,9.94,0,0,0,12,2.24c7.48-3.36,19.45-11.59,19.45-11.59s.37-9-12.35-16.08-14.58-7.48-14.58-7.48,4.49-3.74,9.35-1.87,22.06,9,22.06,9Z"/><path class="cls-3" d="M302.65,133.15l26.14-13.77s20.57,13.09,22.44,18,1.12,14.21,1.12,15.33-27.68,13.46-27.68,13.46a45.47,45.47,0,0,0-3,16.46c.14,6.59.25,14.29.25,17.26l4.81-5.06,1.13-14.08s13.63,2.63,17-13.83l7.1-4.11,16.83,13.46s-5.61,18.33-23.18,24.31c1.27,9.75,3.74,25.43,3.74,25.43l-16.46,3.74,17.2,3s-.74,6.73-4.11,8.6l-16.08-3.36,8.6,6.73a9.94,9.94,0,0,1-12,2.24c-7.48-3.36-19.44-11.59-19.44-11.59s-.38-9,12.34-16.08S334,211.76,334,211.76s-4.48-3.74-9.35-1.87-22.06,9-22.06,9Z"/><path class="cls-3" d="M303.08,241.8l-21.52,11.61s-2,9.53,4.83,15.26l2.87-7.56s1.43,13.56,13.82,13.56,13.57-13.56,13.57-13.56l2.87,7.3s6.52-2.87,5.09-14.74Z"/><path class="cls-4" d="M302.73,294c.74-.92,9.35,8,15.63,11.69s15,8.68,20.53,18.87c2,3.71,5.86,13.3-.38,27.21-3,3.94-2.27-8.73-12.3-25-5.66-9.18-9.15-13.36-15.66-18.25C304.3,303.83,302,294.89,302.73,294Z"/><path class="cls-3" d="M305.38,291.32c.74-.91,9.35,8.05,15.63,11.69s15,8.68,20.53,18.87c2,3.71,5.86,13.3-.38,27.21-3,3.94-2.27-8.72-12.3-25-5.66-9.18-9.15-13.36-15.66-18.25C307,301.18,304.65,292.24,305.38,291.32Z"/><path class="cls-4" d="M272.51,291.14c.69,2.91,3.49,16.09,9.66,24.4s20.38,33.79,22.25,42.9,2.69,20.11.81,28.43-5.38-15.08-16.9-26c-2.8-2.66-6.7-5.9-7.77-6.71s-2.15-1.61-2.95,1.88a89.72,89.72,0,0,0-2.95,17.16c-.54,8.31-.54,23.6,2.41,29.23s4.56,10.19,5.37,11.53.8,4-4.83,0-12.6-10.19-15.29-14.21-8.45-11.93-12.06-33.25c-4.63-27.35-10.42-35-14.75-40.49-3.12-4-4-3.76-6.71-5.64-1.86-1.32-2.94-2.41,0,6.71s.81,26-2.68,30.57-2.14-2.95-5.36-10.46-9.65-22.52-12.6-26-8.32-19.31-8.58-26.28a69.34,69.34,0,0,1,2.68-23.6c2.68-8.85,1.87-6.16,2.68-8.85s2.41-2.14,2.41,2.42,1.08,15.55,4,22.25,6.7,14.75,19,22.8S253.71,327,258.3,334a64.41,64.41,0,0,1,7.51,16.09c.62,2.07,1.07,4.29,5.09-.8s4.3-22.8,2.42-28.7-4.56-14.75-4.29-19.84S271.44,286.58,272.51,291.14Z"/><path class="cls-3" d="M275.16,288.49c.69,2.91,3.49,16.09,9.66,24.4s20.38,33.79,22.25,42.9,2.69,20.11.81,28.43-5.38-15.08-16.9-26c-2.8-2.66-6.7-5.9-7.77-6.71s-2.15-1.61-2.95,1.88a89.72,89.72,0,0,0-2.95,17.16c-.54,8.31-.54,23.6,2.41,29.23s4.56,10.19,5.37,11.53.8,4-4.83,0-12.6-10.19-15.29-14.21-8.45-11.93-12.06-33.25c-4.63-27.35-10.42-35-14.75-40.49-3.12-4-4-3.76-6.71-5.63-1.86-1.33-2.94-2.42,0,6.7s.81,26-2.68,30.57-2.14-2.95-5.36-10.46-9.65-22.52-12.6-26-8.32-19.31-8.58-26.28a69.34,69.34,0,0,1,2.68-23.6c2.68-8.85,1.87-6.16,2.68-8.85s2.41-2.14,2.41,2.42,1.08,15.55,4,22.25,6.71,14.75,19,22.8,23.29,17.11,27.89,24.13a64.41,64.41,0,0,1,7.51,16.09c.62,2.07,1.07,4.29,5.09-.8s4.3-22.8,2.42-28.7-4.56-14.75-4.29-19.84S274.09,283.93,275.16,288.49Z"/><ellipse class="cls-3" cx="275.29" cy="167.29" rx="5.6" ry="8.29" transform="translate(-7.23 322.05) rotate(-60)"/><ellipse class="cls-3" cx="331.46" cy="167.29" rx="8.29" ry="5.6" transform="translate(-39.24 188.14) rotate(-30)"/><path class="cls-2" d="M270.56,161.05l5.1,2.56s-5.55-3-7.56-.47C267.45,160.42,270.56,161.05,270.56,161.05Z"/><path class="cls-2" d="M336.05,160.94,331,163.5s5.54-2.95,7.55-.47C339.17,160.31,336.05,160.94,336.05,160.94Z"/></g></svg>